<?xml version="1.0" encoding="UTF-8"?><svg xmlns="http://www.w3.org/2000/svg" viewBox="0 0 1042.98 296"><defs><style>.cls-1{fill:#f70011;}</style></defs><g id="text"><path d="m387.34,140.79h28.8l38.53,114.89h-22.99l-8.55-26.52h-45.12l-8.32,26.52h-21.11l38.77-114.89Zm30.84,72.43l-17.5-54.46-17.58,54.46h35.08Z"/><path d="m468.4,171.63h20.09v13.34c5.41-10.36,16.71-15.15,28.41-15.15,20.17,0,29.27,14.2,29.27,33.27v52.58h-20.4v-50.62c0-11.77-5.26-18.68-17.19-18.68-12.63,0-20.09,7.85-20.09,19.93v49.36h-20.09v-84.05Z"/><path d="m614.52,245.4c-6.36,8.48-15.7,11.85-26.05,11.85-15.77,0-28.17-8-28.17-24.48,0-23.31,24.64-27,44.18-27h9.89v-1.33c0-12.01-2.83-19.62-16.4-19.62-8.16,0-15.69,4.24-18.68,12.01l-15.62-6.75c5.65-14.83,21.35-20.25,36.33-20.25,19.85,0,34.29,9.57,34.29,30.92v54.93h-19.78v-10.28Zm-10.28-27.31c-9.26,0-24.01,1.1-24.01,13.81,0,8.08,5.89,11.07,13.42,11.07,10.2,0,20.72-5.34,20.72-16.72v-8.16h-10.12Z"/><path d="m655.08,137.57l20.09-8.71v126.82h-20.09v-118.11Z"/><path d="m717.31,247.12l-32.96-75.49h21.5l22.05,53.68,20.56-53.68h19.54l-46.22,112.85h-19.7l15.22-37.35Z"/><path d="m825.37,255.05c-4.32,1.26-8.79,2.04-13.81,2.04-16.01,0-25.5-8.32-25.5-25.03v-45.67h-11.3v-14.75h11.3v-17.34l20.09-8.71v26.05h18.52v14.75h-18.52v43.87c0,6.59,2.83,10.67,10.2,10.67,2.83,0,5.96-.63,9.02-1.65v15.77Z"/><path d="m851.81,136.08c6.51,0,11.69,4.79,11.69,11.46s-5.02,11.38-11.61,11.38-12.01-4.87-12.01-11.46,5.42-11.38,11.93-11.38Zm-10.12,35.71h20.09v83.89h-20.09v-83.89Z"/><path d="m959.4,231.9c-5.57,17.58-21.27,25.35-38.85,25.35-26.68,0-42.61-17.89-42.61-43.87s17.81-43.55,43.08-43.55c17.03,0,31.7,7.14,37.9,23.62l-16.25,7.14c-3.37-9.42-11.54-14.83-21.66-14.83-16.4,0-22.44,14.2-22.44,28.64s6.51,27.62,22.76,27.62c11.54,0,19.31-6.36,22.76-16.87l15.3,6.75Z"/><path d="m983.25,230.64c3.14,8.24,11.69,12.16,20.8,12.16,6.51,0,14.6-2.04,14.6-9.97,0-8.4-9.1-10.36-19.46-12.56-13.5-2.83-28.64-6.12-28.64-24.96,0-17.26,16.09-25.5,31.31-25.5,13.34,0,28.57,5.02,34.06,18.29l-14.91,6.43c-3.3-7.46-11.54-10.28-18.44-10.28s-13.11,2.67-13.11,9.5c0,7.69,8.24,9.34,18.36,11.3,13.73,2.67,30.06,5.81,30.06,25.43s-16.56,26.76-34.06,26.76c-14.83,0-30.76-5.02-36.02-20.09l15.46-6.51Z"/><path d="m357.63,104.42l36.97-53.42h-33.23v-10.54h50.63v5.25l-36.07,53.42h35.03v10.54h-53.32v-5.25Z"/><path d="m443.57,57.96c15.36,0,27.18,10.78,27.18,26.28s-12.43,26.38-27.7,26.38-27.8-10.68-27.8-26.14,13.09-26.52,28.32-26.52Zm14.18,26.38c0-9.31-4.73-17.06-14.65-17.06s-14.28,8.13-14.28,17.4,4.77,16.64,14.56,16.64,14.37-8.13,14.37-16.97Z"/><path d="m479.02,36.12h12.1v30.96c3.26-6.29,9.93-9.12,16.92-9.12,12.1,0,18.15,8.51,18.15,20.04v31.67h-12.2v-30.49c0-7.28-3.78-11.25-10.83-11.25-7.75,0-12.05,4.77-12.05,12.01v29.73h-12.1V36.12Z"/><path d="m561.8,57.96c15.36,0,27.18,10.78,27.18,26.28s-12.43,26.38-27.7,26.38-27.8-10.68-27.8-26.14,13.09-26.52,28.32-26.52Zm14.18,26.38c0-9.31-4.73-17.06-14.65-17.06s-14.28,8.13-14.28,17.4,4.77,16.64,14.56,16.64,14.37-8.13,14.37-16.97Z"/></g><g id="logo"><path class="cls-1" d="m269.94,276.48H108.11c-9.23,0-17.5-4.78-22.11-12.78-4.61-8-4.59-17.55.04-25.54l49.74-85.76c3.08-5.31,8.58-8.48,14.71-8.48s11.64,3.17,14.71,8.48l23.74,40.93,28.7-49.47-59.8-103.09c-2.22-3.82-5.88-4.24-7.36-4.24s-5.14.41-7.36,4.24L23.7,246.7c-2.23,3.84-.75,7.23-.01,8.51.74,1.28,2.93,4.26,7.37,4.26h30.4c4.7,0,8.5,3.81,8.5,8.5s-3.81,8.5-8.5,8.5h-30.4c-9.23,0-17.5-4.78-22.11-12.78-4.61-8-4.59-17.55.04-25.54L128.43,32.24c4.62-7.96,12.87-12.71,22.07-12.71s17.45,4.75,22.07,12.71l54.92,94.68,43.37-74.75c2.36-4.06,7.56-5.44,11.62-3.09,4.06,2.36,5.45,7.56,3.09,11.62l-48.26,83.17,54.7,94.3c4.63,7.99,4.65,17.53.04,25.54-4.61,8-12.87,12.78-22.11,12.78Zm-119.44-115.54l-49.74,85.76c-2.23,3.84-.75,7.23-.01,8.51.74,1.28,2.93,4.26,7.37,4.26h161.83c4.44,0,6.63-2.98,7.37-4.26.74-1.28,2.21-4.67-.01-8.51l-49.82-85.88-23.82,41.06c-3.08,5.31-8.58,8.47-14.71,8.47h0c-6.13,0-11.63-3.17-14.71-8.48l-23.74-40.93Z"/><path class="cls-1" d="m286.97,97.88c-3.76,0-7.2-2.52-8.21-6.32l-6.57-24.73-24.73,6.57c-4.54,1.21-9.2-1.5-10.4-6.04-1.21-4.54,1.5-9.2,6.04-10.4l32.95-8.75c4.54-1.21,9.2,1.5,10.4,6.04l8.75,32.95c1.21,4.54-1.5,9.2-6.04,10.4-.73.19-1.47.29-2.19.29Z"/></g></svg>