<?xml version="1.0" encoding="utf-8"?>
<!-- Generator: Adobe Illustrator 27.4.0, SVG Export Plug-In . SVG Version: 6.00 Build 0)  -->
<svg version="1.1" id="Layer_1" xmlns="http://www.w3.org/2000/svg" xmlns:xlink="http://www.w3.org/1999/xlink" x="0px" y="0px"
	 viewBox="0 0 860 296" style="enable-background:new 0 0 860 296;" xml:space="preserve">
<style type="text/css">
	.st0{fill:#FFFFFF;}
	.st1{fill:#226DB4;}
</style>
<g>
	<g>
		<path d="M382.17,140.79h45.28c20.95,0,38.22,6.67,38.22,30.53c0,12.48-6.44,20.95-18.52,24.41c15.62,3.14,23.31,11.77,23.31,27.7
			c0,24.48-18.36,32.25-39.94,32.25h-48.34V140.79z M424.7,188.97c12.48,0,19.54-3.69,19.54-17.19c0-12.56-8.95-15.38-19.85-15.38
			H403.9v32.57H424.7z M427.76,240.06c12.71,0,20.8-4.94,20.8-18.13c0-14.6-9.97-18.21-22.29-18.21H403.9v36.33H427.76z"/>
		<path d="M525.77,169.83c25.5,0,45.12,17.89,45.12,43.63c0,26.45-20.64,43.79-45.99,43.79c-25.58,0-46.14-17.74-46.14-43.4
			C478.76,187.48,500.5,169.83,525.77,169.83z M549.31,213.62c0-15.46-7.85-28.33-24.33-28.33c-16.95,0-23.7,13.5-23.7,28.88
			c0,14.91,7.93,27.62,24.17,27.62C542.25,241.79,549.31,228.29,549.31,213.62z"/>
		<path d="M624.33,169.83c25.5,0,45.12,17.89,45.12,43.63c0,26.45-20.64,43.79-45.99,43.79c-25.58,0-46.14-17.74-46.14-43.4
			C577.33,187.48,599.06,169.83,624.33,169.83z M647.88,213.62c0-15.46-7.85-28.33-24.33-28.33c-16.95,0-23.7,13.5-23.7,28.88
			c0,14.91,7.93,27.62,24.17,27.62C640.81,241.79,647.88,228.29,647.88,213.62z"/>
		<path d="M684.13,133.57h20.09v74.71l30.45-36.65h22.05l-33.35,38.53l35.86,45.52h-23.15l-31.86-40.96v40.96h-20.09V133.57z"/>
		<path d="M779.78,230.64c3.14,8.24,11.69,12.16,20.8,12.16c6.51,0,14.6-2.04,14.6-9.97c0-8.4-9.1-10.36-19.46-12.56
			c-13.5-2.83-28.64-6.12-28.64-24.96c0-17.26,16.09-25.5,31.31-25.5c13.34,0,28.56,5.02,34.06,18.29l-14.91,6.43
			c-3.3-7.46-11.54-10.28-18.44-10.28c-6.67,0-13.11,2.67-13.11,9.5c0,7.69,8.24,9.34,18.36,11.3c13.73,2.67,30.06,5.81,30.06,25.43
			c0,19.78-16.56,26.76-34.06,26.76c-14.83,0-30.76-5.02-36.02-20.09L779.78,230.64z"/>
	</g>
	<g>
		<path d="M382.32,104.43l36.97-53.42h-33.23V40.47h50.63v5.25l-36.07,53.42h35.03v10.54h-53.32V104.43z"/>
		<path d="M468.36,57.96c15.36,0,27.18,10.78,27.18,26.28c0,15.93-12.43,26.38-27.7,26.38c-15.41,0-27.8-10.68-27.8-26.14
			C440.04,68.59,453.14,57.96,468.36,57.96z M482.54,84.33c0-9.31-4.73-17.06-14.65-17.06c-10.21,0-14.28,8.13-14.28,17.4
			c0,8.98,4.77,16.64,14.56,16.64C478.29,101.3,482.54,93.17,482.54,84.33z"/>
		<path d="M504.38,36.12h12.1v30.96c3.26-6.29,9.93-9.12,16.92-9.12c12.1,0,18.15,8.51,18.15,20.04v31.67h-12.2V79.18
			c0-7.28-3.78-11.25-10.83-11.25c-7.75,0-12.05,4.77-12.05,12.01v29.73h-12.1V36.12z"/>
		<path d="M587.72,57.96c15.36,0,27.18,10.78,27.18,26.28c0,15.93-12.43,26.38-27.7,26.38c-15.41,0-27.8-10.68-27.8-26.14
			C559.41,68.59,572.5,57.96,587.72,57.96z M601.9,84.33c0-9.31-4.73-17.06-14.65-17.06c-10.21,0-14.28,8.13-14.28,17.4
			c0,8.98,4.77,16.64,14.56,16.64C597.65,101.3,601.9,93.17,601.9,84.33z"/>
	</g>
</g>
<g>
	<g>
		<path class="st1" d="M234.32,293H36.21c-4.69,0-8.5-3.8-8.5-8.5v-71.98c0-15.72,9.99-29.72,24.86-34.82l219.56-75.36
			c17.09-5.87,28.58-21.96,28.58-40.03c0-23.34-18.99-42.32-42.32-42.32H44.7v140.17c0,4.69-3.8,8.5-8.5,8.5s-8.5-3.8-8.5-8.5V11.5
			c0-4.69,3.8-8.5,8.5-8.5H258.4c32.71,0,59.31,26.61,59.31,59.31c0,25.33-16.1,47.88-40.06,56.1L58.09,193.77
			c-8.01,2.75-13.39,10.28-13.39,18.75v63.48h189.61c17.74,0,34.41-6.91,46.95-19.45c12.54-12.54,19.45-29.21,19.45-46.95
			c0-12.55-3.54-24.8-10.23-35.41c-6.62-10.51-16.01-18.91-27.16-24.32c-4.22-2.05-5.98-7.13-3.93-11.35
			c2.05-4.22,7.13-5.98,11.35-3.93c14,6.79,25.79,17.35,34.11,30.55c8.41,13.33,12.85,28.71,12.85,44.47
			c0,22.27-8.67,43.22-24.43,58.97C277.54,284.32,256.59,293,234.32,293z"/>
	</g>
	<g>
		<path class="st1" d="M123.3,121.89c-18.74,0-33.98-15.24-33.98-33.98s15.24-33.98,33.98-33.98s33.98,15.24,33.98,33.98
			S142.04,121.89,123.3,121.89z M123.3,70.92c-9.37,0-16.99,7.62-16.99,16.99s7.62,16.99,16.99,16.99s16.99-7.62,16.99-16.99
			S132.67,70.92,123.3,70.92z"/>
	</g>
	<g>
		<path class="st1" d="M208.49,241.89c-18.74,0-33.98-15.24-33.98-33.98s15.24-33.98,33.98-33.98s33.98,15.24,33.98,33.98
			S227.23,241.89,208.49,241.89z M208.49,190.91c-9.37,0-16.99,7.62-16.99,16.99s7.62,16.99,16.99,16.99
			c9.37,0,16.99-7.62,16.99-16.99S217.86,190.91,208.49,190.91z"/>
	</g>
</g>
</svg>
