<?xml version="1.0" encoding="utf-8"?>
<!-- Generator: Adobe Illustrator 27.3.1, SVG Export Plug-In . SVG Version: 6.00 Build 0)  -->
<svg version="1.1" id="Layer_1" xmlns="http://www.w3.org/2000/svg" xmlns:xlink="http://www.w3.org/1999/xlink" x="0px" y="0px"
	 viewBox="0 0 882 296" style="enable-background:new 0 0 882 296;" xml:space="preserve">
<style type="text/css">
	.st0{fill:#FFFFFF;}
	.st1{fill:#226DB4;}
	.st2{fill:#E42527;}
	.st3{fill:#F9B21D;}
	.st4{fill:#089949;}
</style>
<g>
	<g>
		<path d="M359,140.8H399c24.2,0,43.1,9.7,43.1,36.2c0,29.1-23,35.4-47.6,35.4h-13.2v43.3H359V140.8z M398.8,196.4
			c13.7,0,21.5-5.7,21.5-19.5c0-14.4-8.5-19.1-21.5-19.1h-17.5v38.7H398.8z"/>
		<path d="M528.6,237.4c-7,14.8-22.1,19.9-37.5,19.9c-26.5,0-43.2-17.7-43.2-43.9c0-24.6,17-43.6,42.3-43.6
			c27.2,0,40.4,15.9,40.4,48.3h-62.2c0,14.2,8.2,24.6,23.5,24.6c9.1,0,16.6-3.7,21-12.2L528.6,237.4z M510.6,204.9
			c-0.6-12.7-8.3-20.5-20.2-20.5c-12.6,0-20,8.9-21.7,20.5H510.6z"/>
		<path d="M585.5,169.8c25.5,0,45.1,17.9,45.1,43.6c0,26.4-20.6,43.8-46,43.8c-25.6,0-46.1-17.7-46.1-43.4
			C538.5,187.5,560.2,169.8,585.5,169.8z M609,213.6c0-15.5-7.8-28.3-24.3-28.3c-17,0-23.7,13.5-23.7,28.9
			c0,14.9,7.9,27.6,24.2,27.6C602,241.8,609,228.3,609,213.6z"/>
		<path d="M645.3,171.6h20.1v13.6c5.8-9.8,17.6-15.4,28.8-15.4c25.7,0,38.1,20.6,38.1,43.6c0,23.6-13.2,43.9-37.5,43.9
			c-11.8,0-23.7-4.7-29.3-14.8v42h-20.1V171.6z M711.5,212.9c0-14.2-7.1-27.4-23.5-27.4c-16.6,0-23.3,13.3-23.3,28.4
			c0,15.6,7.2,27.6,23.9,27.6C706.3,241.6,711.5,228.4,711.5,212.9z"/>
		<path d="M749.3,137.6l20.1-8.7v126.8h-20.1V137.6z"/>
		<path d="M867.1,237.4c-7,14.8-22.1,19.9-37.5,19.9c-26.5,0-43.2-17.7-43.2-43.9c0-24.6,17-43.6,42.3-43.6
			c27.2,0,40.4,15.9,40.4,48.3h-62.2c0,14.2,8.2,24.6,23.5,24.6c9.1,0,16.6-3.7,21-12.2L867.1,237.4z M849,204.9
			c-0.6-12.7-8.3-20.5-20.2-20.5c-12.6,0-20,8.9-21.7,20.5H849z"/>
	</g>
	<g>
		<path d="M359.2,104.4l37-53.4h-33.2V40.5h50.6v5.2l-36.1,53.4h35v10.5h-53.3V104.4z"/>
		<path d="M445.2,58c15.4,0,27.2,10.8,27.2,26.3c0,15.9-12.4,26.4-27.7,26.4c-15.4,0-27.8-10.7-27.8-26.1
			C416.9,68.6,430,58,445.2,58z M459.4,84.3c0-9.3-4.7-17.1-14.7-17.1c-10.2,0-14.3,8.1-14.3,17.4c0,9,4.8,16.6,14.6,16.6
			C455.1,101.3,459.4,93.2,459.4,84.3z"/>
		<path d="M481.2,36.1h12.1v31c3.3-6.3,9.9-9.1,16.9-9.1c12.1,0,18.2,8.5,18.2,20v31.7h-12.2V79.2c0-7.3-3.8-11.3-10.8-11.3
			c-7.8,0-12.1,4.8-12.1,12v29.7h-12.1V36.1z"/>
		<path d="M564.6,58c15.4,0,27.2,10.8,27.2,26.3c0,15.9-12.4,26.4-27.7,26.4c-15.4,0-27.8-10.7-27.8-26.1
			C536.3,68.6,549.4,58,564.6,58z M578.8,84.3c0-9.3-4.7-17.1-14.7-17.1c-10.2,0-14.3,8.1-14.3,17.4c0,9,4.8,16.6,14.6,16.6
			C574.5,101.3,578.8,93.2,578.8,84.3z"/>
	</g>
</g>
<g>
	<g>
		<path class="st1" d="M151.2,106.1c-14.7,0-26.6-11.9-26.6-26.6s11.9-26.6,26.6-26.6s26.6,11.9,26.6,26.6
			C177.8,94.1,165.9,106.1,151.2,106.1z M151.2,69.8c-5.3,0-9.6,4.3-9.6,9.6s4.3,9.6,9.6,9.6s9.6-4.3,9.6-9.6S156.5,69.8,151.2,69.8
			z"/>
	</g>
	<g>
		<path class="st2" d="M93.8,293c-4.5,0-8.9-1.2-12.8-3.4l-60.4-34.9c-7.9-4.6-12.8-13-12.8-22.1v-69.7c0-9.1,4.9-17.5,12.8-22.1
			l49-28.2c4.1-2.4,9.3-1,11.6,3.1c2.4,4.1,1,9.3-3.1,11.6l-49,28.2c-2.6,1.5-4.3,4.3-4.3,7.4v69.7c0,3,1.6,5.8,4.3,7.4l60.4,34.9
			c2.6,1.5,5.9,1.5,8.5,0l48.9-28.3c4.1-2.4,9.3-1,11.6,3.1c2.4,4.1,1,9.3-3.1,11.6l0,0l-48.9,28.2C102.6,291.8,98.2,293,93.8,293z"
			/>
	</g>
	<g>
		<path class="st3" d="M208.6,293c-4.5,0-8.9-1.2-12.8-3.4l-49-28.3c-4.1-2.4-5.5-7.5-3.1-11.6c2.4-4.1,7.5-5.5,11.6-3.1l49,28.3
			c2.6,1.5,5.9,1.5,8.5,0l60.4-34.9c2.6-1.5,4.3-4.3,4.3-7.4v-69.7c0-3-1.6-5.8-4.3-7.4l-48.9-28.2c-4.1-2.4-5.5-7.5-3.1-11.6
			c2.4-4.1,7.5-5.5,11.6-3.1l48.9,28.2c7.9,4.6,12.8,13,12.8,22.1v69.7c0,9.1-4.9,17.5-12.8,22.1l-60.4,34.9
			C217.5,291.8,213.1,293,208.6,293z"/>
	</g>
	<g>
		<path class="st4" d="M73.8,128.5c-4.7,0-8.5-3.8-8.5-8.5V63.4c0-9.1,4.9-17.5,12.8-22.1l60.4-34.9c7.9-4.5,17.6-4.5,25.5,0
			l60.4,34.9c7.9,4.6,12.8,13,12.8,22.1v56.6c0,4.7-3.8,8.5-8.5,8.5s-8.5-3.8-8.5-8.5V63.4c0-3-1.6-5.8-4.3-7.4l-60.4-34.9
			c-2.6-1.5-5.9-1.5-8.5,0L86.6,56c-2.6,1.5-4.3,4.3-4.3,7.4v56.6C82.3,124.6,78.5,128.5,73.8,128.5z"/>
	</g>
	<g>
		<path class="st1" d="M131.2,184.5c-1.5,0-2.9-0.4-4.3-1.1l-48.9-28.2c-7.9-4.6-12.8-13-12.8-22.1v-13.1c0-4.7,3.8-8.5,8.5-8.5
			c4.7,0,8.5,3.8,8.5,8.5V133c0,3,1.6,5.8,4.3,7.4l48.9,28.3c4.1,2.4,5.5,7.5,3.1,11.6C137.1,182.9,134.3,184.6,131.2,184.5
			L131.2,184.5z"/>
		<path class="st1" d="M171.2,184.6c-4.7,0-8.5-3.8-8.5-8.5c0-3,1.6-5.9,4.3-7.4l49-28.3c2.6-1.5,4.3-4.3,4.3-7.4v-13.1
			c0-4.7,3.8-8.5,8.5-8.5c4.7,0,8.5,3.8,8.5,8.5v13.2c0,9.1-4.9,17.5-12.8,22.1l-49,28.2C174.1,184.2,172.7,184.6,171.2,184.6z"/>
		<path class="st1" d="M151.2,150.1c-4.7,0-8.5-3.8-8.5-8.5c0-3,1.6-5.9,4.3-7.4l48.9-28.2c7.9-4.5,17.6-4.5,25.5,0l11.5,6.6
			c4.1,2.4,5.5,7.5,3.1,11.6c-2.4,4.1-7.5,5.5-11.6,3.1l-11.5-6.6c-2.6-1.5-5.9-1.5-8.5,0l-48.9,28.2
			C154.1,149.7,152.7,150.1,151.2,150.1z"/>
		<path class="st1" d="M151.1,262.4c-1.5,0-2.9-0.4-4.3-1.1l-11.4-6.6c-7.9-4.6-12.7-13-12.8-22.1V176c0-4.7,3.8-8.5,8.5-8.5
			c4.7,0,8.5,3.8,8.5,8.5v56.6c0,3,1.6,5.8,4.3,7.4l11.4,6.6c4.1,2.4,5.5,7.5,3.1,11.6C157,260.8,154.2,262.4,151.1,262.4
			L151.1,262.4z"/>
		<path class="st1" d="M151.2,262.5c-4.7,0-8.5-3.8-8.5-8.5c0-3,1.6-5.9,4.3-7.4l11.5-6.6c2.6-1.5,4.3-4.3,4.3-7.4V176
			c0-4.7,3.8-8.5,8.5-8.5c4.7,0,8.5,3.8,8.5,8.5v56.6c0,9.1-4.9,17.5-12.8,22.1l-11.5,6.6C154.1,262.1,152.7,262.5,151.2,262.5z"/>
		<path class="st1" d="M151.2,150.1c-1.5,0-2.9-0.4-4.3-1.1L98,120.7c-2.6-1.5-5.9-1.5-8.5,0l-11.4,6.6c-4.1,2.4-9.3,1-11.6-3.1
			c-2.4-4.1-1-9.3,3.1-11.6l11.4-6.6c7.9-4.5,17.6-4.5,25.5,0l48.9,28.3c4.1,2.4,5.5,7.5,3.1,11.6
			C157.1,148.4,154.2,150.1,151.2,150.1L151.2,150.1z"/>
	</g>
</g>
</svg>
